Coordinates
version=1
nRows=14
nColumns=24
inDegrees=yes

Units are S.I. units (second, meters, Newtons, ...)
Angles are in degrees.

endheader
time	pelvis_tilt	pelvis_list	pelvis_rotation	pelvis_tx	pelvis_ty	pelvis_tz	hip_flexion_r	hip_adduction_r	hip_rotation_r	knee_angle_r	ankle_angle_r	subtalar_angle_r	mtp_angle_r	hip_flexion_l	hip_adduction_l	hip_rotation_l	knee_angle_l	ankle_angle_l	subtalar_angle_l	mtp_angle_l	lumbar_extension	lumbar_bending	lumbar_rotation
      1.35500000	     -8.99583404	     -3.31718989	     -1.29891633	     -0.64225490	      1.21656857	     -0.85967714	     -5.27978161	     10.46311841	      5.50167107	     -9.71282722	      8.35040802	     -5.40519092	      7.93370552	     33.48101141	      3.64166816	      9.10304057	     -7.54494467	     -1.39133494	     -6.53972362	      8.54575706	     -4.34824865	      3.96908301	      5.62805215
      1.36000000	     -8.95783199	     -3.31716372	     -1.37837393	     -0.63584457	      1.21607145	     -0.85968101	     -5.38309629	     10.39191760	      5.33099845	    -10.51772770	      8.61956616	     -4.43285919	      8.26965767	     33.47816907	      3.74649770	      9.24311156	     -8.11620671	     -2.33479562	     -7.24287589	      9.49205448	     -4.34742603	      3.87428313	      5.56310746
      1.36500000	     -9.00395095	     -3.38185266	     -1.47781697	     -0.62952120	      1.21553240	     -0.85961438	     -5.35845518	     10.41726508	      5.40547753	    -11.34802255	      8.57546176	     -4.11504947	      9.09362567	     33.55164210	      3.75444696	      9.56310750	     -8.53640769	     -3.76791543	     -9.25642601	     14.27857971	     -4.28013867	      3.83984302	      5.47139602
      1.37000000	     -9.02988851	     -3.37620725	     -1.58434737	     -0.62314587	      1.21512372	     -0.85952295	     -5.26515365	     10.35597884	      5.35018166	    -12.34153023	      8.69433460	     -3.41835832	      9.76959582	     33.70830622	      3.84964878	      9.62742879	     -9.39228620	     -4.63833916	     -9.67125383	     14.73276848	     -4.22898597	      3.71088205	      5.42633541
      1.37500000	     -8.98250721	     -3.39740732	     -1.58952780	     -0.61672077	      1.21481303	     -0.85953845	     -5.27957179	     10.32472378	      5.21219810	    -13.24726934	      8.52480637	     -3.09428826	     10.88407668	     33.56162374	      3.92403488	     10.21418861	     -9.51486370	     -6.49172343	    -13.15992315	     23.54342909	     -4.24408325	      3.60271013	      5.27337074
      1.38000000	     -8.61619586	     -2.77065113	     -1.51184359	     -0.61027971	      1.21593210	     -0.85969974	     -5.47557029	      9.49735941	      4.48949699	    -14.39049636	      8.72825813	     -1.78920239	     11.81209161	     34.37290778	      4.96142458	      7.63604430	    -13.65200682	     30.95180838	     -4.99210424	    155.18583349	     -4.59608067	      2.83278861	      5.03309091
      1.38500000	     -8.54273722	     -2.71803390	     -1.51762752	     -0.60383424	      1.21584708	     -0.85966759	     -5.33792796	      9.37438839	      4.20154060	    -15.59067297	      8.59946759	     -1.19310495	     12.85882964	     34.48239092	      5.13108456	      7.67938725	    -14.68739196	     30.08204693	     -5.21807574	    154.80223409	     -4.64714412	      2.62021999	      4.90486992
      1.39000000	     -8.47414235	     -2.65900074	     -1.50333212	     -0.59735198	      1.21583662	     -0.85965572	     -5.11425213	      9.23896910	      3.83696104	    -16.91554884	      8.38324211	     -0.57176876	     13.98155844	     34.59892860	      5.30953501	      7.71992540	    -15.75520317	     29.29016577	     -5.39425085	    154.42687630	     -4.68993287	      2.39503857	      4.75763823
      1.39500000	     -8.41931295	     -2.58201799	     -1.50455570	     -0.59088813	      1.21589776	     -0.85957500	     -4.77553938	      9.09188364	      3.48568891	    -18.40056478	      8.11929892	     -0.03064550	     14.93010186	     34.73490799	      5.47800175	      7.68997005	    -16.85416045	     28.56225944	     -5.47544715	    154.19938843	     -4.72359986	      2.13407631	      4.64265620
      1.40000000	     -8.29009892	     -2.48470561	     -1.43405368	     -0.58433803	      1.21609443	     -0.85965032	     -4.47649181	      8.88342769	      2.90264813	    -19.92699901	      7.78841154	      0.60005260	     16.26726307	     34.77003219	      5.71553565	      7.72591096	    -17.95473482	     27.94084427	     -5.57022075	    153.96150066	     -4.81991786	      1.86100126	      4.52301975
      1.40500000	     -8.17939605	     -2.37642035	     -1.37195461	     -0.57778968	      1.21636531	     -0.85967143	     -4.05891180	      8.66228552	      2.32310542	    -21.60599345	      7.34697312	      1.15269337	     17.48968478	     34.79695115	      5.93935929	      7.71445009	    -19.02463935	     27.43948112	     -5.55870391	    153.82048445	     -4.90669783	      1.56697880	      4.37056814
      1.41000000	     -8.04386072	     -2.24681049	     -1.28426860	     -0.57121449	      1.21672270	     -0.85973151	     -3.58951931	      8.39363722	      1.65289308	    -23.39896983	      6.81071098	      1.70029599	     18.76175948	     34.75901776	      6.19311874	      7.70955383	    -20.05363105	     27.07726127	     -5.49713836	    153.78013382	     -5.01532420	      1.24888420	      4.21254423
      1.41500000	     -7.91593310	     -2.09486760	     -1.18824440	     -0.56461330	      1.21713934	     -0.85980880	     -3.02956732	      8.07921708	      0.92912657	    -25.30985318	      6.14604285	      2.18570581	     19.91793685	     34.68755508	      6.46657807	      7.69059410	    -21.03351231	     26.84353928	     -5.38868793	    153.81867937	     -5.11037910	      0.90972489	      4.06162445
      1.42000000	     -7.78807695	     -1.90966982	     -1.07419363	     -0.55800314	      1.21760262	     -0.85990413	     -2.38923931	      7.70097735	      0.15301437	    -27.33355815	      5.36934871	      2.64073078	     21.02174677	     34.56076361	      6.77705189	      7.68480771	    -21.93362485	     26.72781661	     -5.25514085	    153.92283509	     -5.20563511	      0.53574292	      3.89943601
